PathFileType	4	(X/Y/Z)	Patient4_TMGait_0pt6_02_right_26.trc.trc
DataRate	CameraRate	NumFrames	NumMarkers	Units	OrigDataRate	OrigDataStartFrame	OrigNumFrames
80.000000000000	80.000000000000	6	33	mm	80.000000000000	106	       141
Frame#	Time	Sacral			L.Shoulder			Chest			R.Shoulder			Neck			R.ASIS			L.ASIS			R.Thigh.Superior			R.Thigh.Lateral			R.Thigh.Inferior			R.Patella			L.Thigh.Superior			L.Thigh.Lateral			L.Thigh.Inferior			L.Patella			L.Shank.Superior			L.Shank.Lateral			L.Shank.Inferior			R.Shank.Superior			R.Shank.Lateral			R.Shank.Inferior			R.Heel			R.Midfoot.Superior			R.Midfoot.Lateral			R.Toe			L.Heel			L.Midfoot.Lateral			L.Midfoot.Superior			L.Toe			L.Elbow			L.Wrist			R.Elbow			R.Wrist			
		X1	Y1	Z1	X2	Y2	Z2	X3	Y3	Z3	X4	Y4	Z4	X5	Y5	Z5	X6	Y6	Z6	X7	Y7	Z7	X8	Y8	Z8	X9	Y9	Z9	X10	Y10	Z10	X11	Y11	Z11	X12	Y12	Z12	X13	Y13	Z13	X14	Y14	Z14	X15	Y15	Z15	X16	Y16	Z16	X17	Y17	Z17	X18	Y18	Z18	X19	Y19	Z19	X20	Y20	Z20	X21	Y21	Z21	X22	Y22	Z22	X23	Y23	Z23	X24	Y24	Z24	X25	Y25	Z25	X26	Y26	Z26	X27	Y27	Z27	X28	Y28	Z28	X29	Y29	Z29	X30	Y30	Z30	X31	Y31	Z31	X32	Y32	Z32	X33	Y33	Z33	

106	32.492500000000	833.253705300345	1010.983233241089	401.719667611360	1032.050364509257	1440.632325192157	237.262424982246	1129.216375729136	1359.818066186760	395.501831851344	1046.231002016166	1433.345117428426	569.322802472075	1034.710040275960	1494.890638897887	389.481687727937	1061.255894736544	943.810976045691	516.541505935120	1048.548335093999	969.540495156806	241.867322106044	1157.688992875266	800.186985485141	483.911511158432	1138.947523502488	678.055255895282	564.693096202695	1233.243905819709	651.473501243941	484.276464266514	1270.425500833203	540.857344952925	508.186669301921	1076.307255257277	743.504485571512	274.188900014416	970.597382790525	636.520890657446	219.911578822513	1042.722148187732	551.004915664307	285.221645516914	1034.384116034821	484.043313419305	299.227851034633	1006.871772903011	414.530572852767	292.948477589122	913.624521811734	302.544241398126	244.275032560109	955.760054393953	192.354966622095	322.430060209821	1201.441814630201	457.650153523414	516.263616169396	1082.482094691234	405.522321142028	570.705300725970	1084.495782794889	294.054652334280	525.967889387952	896.265617121483	223.408992476503	488.453678214950	1060.577781011324	159.099825951997	537.908313645465	948.796682694221	159.054014683289	562.596713156364	1119.766812457920	42.931372013000	562.062667895376	822.483683844950	39.260736610414	368.245001067059	896.359812759821	35.008628700713	287.477355566321	979.813746175504	96.059087293003	313.746350811195	1108.775834273089	42.083466739011	286.598587537228	1003.048979198327	1103.522386536213	85.825243060320	1234.748201450763	991.971647655840	89.157502987270	892.613234015388	1129.469064038703	688.421916659419	857.510586763225	871.776369577116	717.132839826216	
107	32.505000000000	832.393951796107	1011.133029244238	401.159223488600	1033.881636436845	1439.978504784832	236.561394159640	1129.775673194536	1359.013392116135	395.443340990377	1046.222960032014	1433.319199162824	568.653741790549	1035.736554590716	1494.487846441558	388.652179327489	1059.917661731523	943.751735761829	516.844531841102	1047.188494481749	969.624049396718	242.021266772636	1157.104512651184	802.466521335639	483.318993228746	1140.378377179542	679.704474716154	563.732256396886	1234.554001792438	654.507508551772	482.918654543066	1273.749234718138	545.272573261290	506.674268825930	1073.199141390305	742.437073850746	274.403088881004	966.237585593202	636.622221528639	219.679183445930	1037.251987198543	550.320259058607	284.897471964786	1028.254873796469	483.570434342124	298.737552120282	1000.494312044213	414.372944782818	292.488191744868	906.660559382279	302.772879758337	243.995241987629	948.533179675119	192.349657412749	322.075958211276	1208.393549009458	459.993468858907	514.664418007347	1092.492351306742	401.958535794922	569.483719292908	1099.846630025023	290.831768671221	524.227202048670	914.991100280431	209.853704622764	487.466810316617	1083.025152045646	155.430927949197	535.766653763279	971.714415533640	148.957166706407	561.479822304007	1149.365225494497	43.520534424944	559.924779569874	814.981280276779	39.420172622259	368.136308209361	888.842205416889	35.038947972768	287.433405704427	972.363082103563	96.033253016244	313.560727338718	1101.266775745974	41.900961504958	286.505072492981	1006.741890061584	1103.100323893027	85.058177345333	1241.942230145541	1000.072354361371	90.039538059497	889.045046487352	1132.147864357760	688.638265960753	852.241670626125	874.690407130963	717.914326412410	
108	32.517500000000	831.626725027567	1011.202253759314	400.715617091038	1035.703281159891	1439.167790691803	235.936406556472	1130.402024459015	1358.109391188354	395.442199291480	1046.336694933704	1433.226350905529	568.059808454699	1036.799032256593	1493.988147002919	387.869258736819	1058.627462504732	943.532909134123	517.315323143404	1045.747322308354	969.492344440699	242.384579427362	1156.205500438399	804.055405921995	483.015095792887	1141.106496393933	680.705931738968	562.966004948171	1235.000003007514	656.576865684062	481.729117410183	1275.926798404251	548.933611528061	505.347805023958	1070.119537205311	741.358629007931	274.724815914562	961.962846031520	636.710217391568	219.522520649362	1031.883793218192	549.637553927610	284.617598087528	1022.229773826475	483.081665357003	298.272586951313	994.191614283034	414.208353478061	292.055960130185	899.725711001228	303.019397715393	243.754929801450	941.340860819212	192.345266552926	321.737598351996	1214.507280161825	461.775473666278	513.310657548463	1102.326574699420	397.631987107931	568.724209185984	1115.289439099502	287.166499618408	522.900807695096	934.789367390457	195.396570699758	487.047549912501	1106.022495220771	151.710339552845	534.189187544518	995.659496056550	138.533806911004	560.979818547635	1179.544690906066	44.668337381636	558.461225233771	807.486127026153	39.599325576269	368.023599815152	881.330857555863	35.074910478606	287.397366289657	964.921539325820	96.003346471495	313.384650999227	1093.756774840515	41.716891087530	286.414570696712	1010.332496103262	1102.488663455842	84.424085648889	1248.512452454703	1007.530671969366	91.140087727725	886.144222362201	1134.382858086910	688.755619983163	848.229266097484	877.046266392145	718.593737778671	
109	32.530000000000	830.975414319291	1011.181650082749	400.405465166375	1037.472054579531	1438.211932452212	235.402876926882	1131.084496059696	1357.113749827381	395.496212911552	1046.581506741185	1433.054697288234	567.553923729000	1037.884900195848	1493.391746212266	387.152765459935	1057.438728985387	943.149458574956	517.919972617896	1044.304868654191	969.150684162208	242.915880067247	1155.019217558562	804.883826442657	482.966891237354	1141.095652521471	680.991557627525	562.405553063950	1234.565377227468	657.590659653303	480.730256866069	1276.939663865125	551.745308705386	504.206741091208	1067.090050025443	740.265478648693	275.089907588092	957.769970199605	636.780130694325	219.438205582876	1026.633236339865	548.951080315411	284.364982331128	1016.327220002614	482.573014328190	297.825718921941	987.979274303915	414.030446054270	291.651083920744	892.829265508323	303.283419774987	243.556834273019	934.190353400314	192.341169562928	321.414258549343	1219.705479871403	462.965215189181	512.212703014263	1111.916124750968	392.638983179410	568.427249285836	1130.676914031027	283.192475039313	521.995520551652	955.582647401760	180.314428196746	487.154042930961	1129.343872508395	148.161120932263	533.214850754213	1020.444099288835	128.070858637801	561.069139142988	1209.937406051060	46.610521053705	557.710831228718	799.995447295003	39.798184229471	367.911395989100	873.824268181094	35.118241834650	287.369981396873	957.488406399779	95.970295443476	313.218294747005	1086.243161151362	41.531612831035	286.328615515100	1013.823669440950	1101.700256585568	83.916404119636	1254.484709066825	1014.258174193672	92.436022096579	883.926782362078	1136.130284047010	688.800437464216	845.456711204132	878.810207498606	719.185206754946	
110	32.542500000000	830.466621428733	1011.062262890196	400.249129337311	1039.153288568225	1437.129838317329	234.973932895958	1131.813634715673	1356.037880509520	395.602434779556	1046.964189197313	1432.795757579857	567.146754182120	1038.980902148903	1492.702124715958	386.522366790022	1056.409819420917	942.603325119333	518.624851195270	1042.949888000818	968.613426837872	243.572315635157	1153.578500811160	804.896873397826	483.149115523090	1140.318272053698	680.510367865830	562.069700953473	1233.250657939962	657.487585938148	479.955467434721	1276.788979850199	553.635845284585	503.253991448224	1064.134632468225	739.153094640367	275.451247068698	953.655212521809	636.829336772864	219.426452310763	1021.509633782189	548.256096373143	284.130659432291	1010.560032079323	482.043302219555	297.394255029837	981.867711694793	413.833670832739	291.276382141637	885.976588075754	303.566277510678	243.406802123834	927.086017247029	192.337363470577	321.106362728966	1223.923588112937	463.539761265315	511.375559085746	1121.168381069596	387.081909656783	568.572928096899	1145.832100957009	279.032242691117	521.491104447101	977.202831468377	164.896983259407	487.718518321951	1152.715853811897	144.960285716199	532.832647184006	1045.802946229004	117.817579690194	561.677334643468	1240.138575724718	49.500180200613	557.631468316397	792.507120513113	40.016070992526	367.805568546009	866.320734933617	35.171032710943	287.352363806494	950.062250703451	95.935899932530	313.062000466416	1078.723432066399	41.346069417000	286.248657967283	1017.207229875933	1100.756450634312	83.539343950562	1259.883526223271	1020.183476216968	93.905313727287	882.404123476300	1137.365257300703	688.811457786109	843.921512824986	879.964613494703	719.693716143316	
111	32.555000000000	830.129941617024	1010.832272282504	400.268855081959	1040.719661996171	1435.944221840019	234.660651009673	1132.580600179837	1354.895036218444	395.757739906379	1047.487249036202	1432.442586366245	566.847087233113	1040.071390457686	1491.923971344775	385.997032757589	1055.601525827222	941.900707379233	519.399356518812	1041.771940880338	967.898951869036	244.314212669708	1151.925161385438	804.059037199639	483.546223355452	1138.767724582016	679.234659066338	561.982126937940	1231.082222567369	656.243266948539	479.443454443820	1275.500552044560	554.560229264642	502.494306196448	1061.280228769416	738.016102791161	275.780982863176	949.619151173862	636.856154882901	219.490230954419	1016.520070396060	547.548628277961	283.913580119821	1004.938580897858	481.492373956791	296.980496866493	975.865149271668	413.612617294070	290.937425708316	879.171950299275	303.870114436349	243.312833093322	920.030813341528	192.333541739078	320.815663831291	1227.115224450228	463.483363632365	510.797987117992	1129.963083335534	381.066149240451	569.117468780872	1160.543874361966	274.789563030441	521.340255541775	999.374017301305	149.444142861770	488.645122516973	1175.806516622015	142.223228685059	532.982173718466	1071.376912298421	107.979069358341	562.693880578207	1269.693824502480	53.378123539286	558.112615224437	785.019970667117	40.252259145408	367.712306030319	858.818959768353	35.235747808278	287.345674990695	942.641143726619	95.902655906078	312.916576632663	1071.195976047234	41.161641715510	286.175655014470	1020.463587951062	1099.683008728266	83.305328246344	1264.731065202653	1025.253375855617	95.527165681840	881.581610184095	1138.079270833012	688.836406229889	843.631630822774	880.505354802716	720.118475319151	
